<svg width="102" height="64" viewBox="0 0 102 64" fill="none" xmlns="http://www.w3.org/2000/svg">
<path fill-rule="evenodd" clip-rule="evenodd" d="M78.9071 36.5643C77.543 35.1993 77.543 32.9862 78.9071 31.6212L85.1038 25.4205C86.4679 24.0555 88.6795 24.0555 90.0436 25.4205L96.2403 31.6212C97.6044 32.9862 97.6044 35.1993 96.2403 36.5643L90.0436 42.7651C88.6795 44.1301 86.4679 44.1301 85.1038 42.7651L78.9071 36.5643ZM80.0471 32.7619C79.3126 33.4969 79.3126 34.6886 80.0471 35.4236L86.2438 41.6244C86.9783 42.3594 88.1692 42.3594 88.9037 41.6244L95.1004 35.4236C95.8349 34.6886 95.8349 33.4969 95.1004 32.7619L88.9037 26.5612C88.1692 25.8262 86.9783 25.8262 86.2438 26.5612L80.0471 32.7619Z" fill="#FFCA65"/>
<path fill-rule="evenodd" clip-rule="evenodd" d="M64.294 36.5643C62.9299 35.1993 62.9299 32.9862 64.294 31.6212L85.1038 10.7978C86.4679 9.43277 88.6795 9.43278 90.0436 10.7978L110.853 31.6212C112.218 32.9862 112.218 35.1993 110.853 36.5643L90.0436 57.3878C88.6795 58.7528 86.4679 58.7528 85.1038 57.3878L64.294 36.5643ZM65.4339 32.7619C64.6994 33.4969 64.6994 34.6886 65.4339 35.4236L86.2437 56.2471C86.9782 56.9821 88.1691 56.9821 88.9036 56.2471L109.713 35.4236C110.448 34.6886 110.448 33.4969 109.713 32.7619L88.9036 11.9385C88.1691 11.2035 86.9782 11.2035 86.2437 11.9385L65.4339 32.7619Z" fill="#FFCA65"/>
<path fill-rule="evenodd" clip-rule="evenodd" d="M93.1287 52.557C93.4435 52.2421 93.9538 52.2421 94.2686 52.557L103.673 61.9674C103.988 62.2824 103.988 62.7931 103.673 63.1081C103.358 63.4231 102.848 63.4231 102.533 63.1081L93.1287 53.6978C92.8139 53.3828 92.8139 52.872 93.1287 52.557Z" fill="#FFCA65"/>
<path fill-rule="evenodd" clip-rule="evenodd" d="M99.5773 46.1043C99.8921 45.7893 100.402 45.7893 100.717 46.1043L110.121 55.5147C110.436 55.8297 110.436 56.3404 110.121 56.6554C109.807 56.9704 109.296 56.9704 108.981 56.6554L99.5773 47.245C99.2625 46.93 99.2625 46.4193 99.5773 46.1043Z" fill="#FFCA65"/>
<path fill-rule="evenodd" clip-rule="evenodd" d="M81.6401 15.2496C81.3253 15.5646 80.815 15.5646 80.5002 15.2496L71.096 5.83922C70.7812 5.52422 70.7812 5.0135 71.096 4.69851C71.4108 4.38351 71.9211 4.38351 72.2359 4.69851L81.6401 14.1089C81.9549 14.4239 81.9549 14.9346 81.6401 15.2496Z" fill="#FFCA65"/>
<path fill-rule="evenodd" clip-rule="evenodd" d="M75.1915 21.7023C74.8767 22.0173 74.3663 22.0173 74.0516 21.7023L64.6474 12.292C64.3326 11.977 64.3326 11.4663 64.6474 11.1513C64.9621 10.8363 65.4725 10.8363 65.7873 11.1513L75.1915 20.5616C75.5063 20.8766 75.5063 21.3874 75.1915 21.7023Z" fill="#FFCA65"/>
<path fill-rule="evenodd" clip-rule="evenodd" d="M68.7429 28.1552C68.4281 28.4702 67.9177 28.4702 67.6029 28.1552L58.1987 18.7449C57.884 18.4299 57.884 17.9191 58.1987 17.6041C58.5135 17.2891 59.0239 17.2891 59.3387 17.6041L68.7429 27.0145C69.0577 27.3295 69.0577 27.8402 68.7429 28.1552Z" fill="#FFCA65"/>
<path fill-rule="evenodd" clip-rule="evenodd" d="M99.5773 21.7023C99.2625 21.3874 99.2625 20.8766 99.5773 20.5616L108.981 11.1513C109.296 10.8363 109.807 10.8363 110.121 11.1513C110.436 11.4663 110.436 11.977 110.121 12.292L100.717 21.7023C100.402 22.0173 99.8921 22.0173 99.5773 21.7023Z" fill="#FFCA65"/>
<path fill-rule="evenodd" clip-rule="evenodd" d="M93.1287 15.2496C92.8139 14.9346 92.8139 14.4239 93.1287 14.1089L102.533 4.69851C102.848 4.38351 103.358 4.38351 103.673 4.69851C103.988 5.0135 103.988 5.52422 103.673 5.83922L94.2686 15.2496C93.9538 15.5646 93.4435 15.5646 93.1287 15.2496Z" fill="#FFCA65"/>
<path fill-rule="evenodd" clip-rule="evenodd" d="M68.7429 39.6514C69.0577 39.9664 69.0577 40.4771 68.7429 40.7921L59.3387 50.2025C59.0239 50.5175 58.5135 50.5175 58.1987 50.2025C57.884 49.8875 57.884 49.3768 58.1987 49.0618L67.6029 39.6514C67.9177 39.3364 68.4281 39.3364 68.7429 39.6514Z" fill="#FFCA65"/>
<path fill-rule="evenodd" clip-rule="evenodd" d="M75.1915 46.1043C75.5063 46.4193 75.5063 46.93 75.1915 47.245L65.7873 56.6554C65.4725 56.9704 64.9621 56.9704 64.6473 56.6554C64.3326 56.3404 64.3326 55.8297 64.6473 55.5147L74.0516 46.1043C74.3663 45.7893 74.8767 45.7893 75.1915 46.1043Z" fill="#FFCA65"/>
<path fill-rule="evenodd" clip-rule="evenodd" d="M81.6401 52.557C81.9549 52.872 81.9549 53.3828 81.6401 53.6978L72.2359 63.1081C71.9211 63.4231 71.4108 63.4231 71.096 63.1081C70.7812 62.7931 70.7812 62.2824 71.096 61.9674L80.5002 52.557C80.815 52.2421 81.3253 52.2421 81.6401 52.557Z" fill="#FFCA65"/>
<path fill-rule="evenodd" clip-rule="evenodd" d="M6.52521 -20.7046C5.16112 -22.0696 5.16112 -24.2827 6.52522 -25.6477L27.335 -46.4712C28.6991 -47.8361 30.9108 -47.8361 32.2749 -46.4712L53.0847 -25.6477C54.4488 -24.2827 54.4488 -22.0696 53.0847 -20.7046L32.2749 0.118857C30.9108 1.48385 28.6991 1.48385 27.335 0.118856L6.52521 -20.7046ZM7.66518 -24.507C6.93066 -23.772 6.93066 -22.5803 7.66518 -21.8453L28.475 -1.02185C29.2095 -0.286857 30.4004 -0.286857 31.1349 -1.02185L51.9447 -21.8453C52.6792 -22.5803 52.6792 -23.772 51.9447 -24.507L31.1349 -45.3304C30.4004 -46.0654 29.2095 -46.0654 28.475 -45.3304L7.66518 -24.507Z" fill="#FFCA65"/>
<path fill-rule="evenodd" clip-rule="evenodd" d="M35.3599 -4.71187C35.6747 -5.02687 36.1851 -5.02687 36.4999 -4.71187L45.9041 4.6985C46.2189 5.0135 46.2189 5.52422 45.9041 5.83921C45.5893 6.15421 45.0789 6.15421 44.7641 5.83921L35.3599 -3.57116C35.0451 -3.88616 35.0451 -4.39687 35.3599 -4.71187Z" fill="#FFCA65"/>
<path fill-rule="evenodd" clip-rule="evenodd" d="M23.8714 -4.71187C24.1862 -4.39687 24.1862 -3.88616 23.8714 -3.57116L14.4672 5.83921C14.1524 6.15421 13.642 6.15421 13.3272 5.83921C13.0124 5.52421 13.0124 5.0135 13.3272 4.6985L22.7314 -4.71187C23.0462 -5.02687 23.5566 -5.02687 23.8714 -4.71187Z" fill="#FFCA65"/>
<path fill-rule="evenodd" clip-rule="evenodd" d="M21.1384 36.5643C19.7743 35.1993 19.7743 32.9862 21.1384 31.6212L27.3351 25.4205C28.6992 24.0555 30.9108 24.0555 32.2749 25.4205L38.4716 31.6212C39.8357 32.9862 39.8357 35.1993 38.4716 36.5643L32.2749 42.7651C30.9108 44.1301 28.6992 44.1301 27.3351 42.7651L21.1384 36.5643ZM22.2783 32.7619C21.5438 33.4969 21.5438 34.6886 22.2783 35.4236L28.475 41.6244C29.2095 42.3594 30.4004 42.3594 31.1349 41.6244L37.3316 35.4236C38.0661 34.6886 38.0661 33.4969 37.3316 32.7619L31.1349 26.5612C30.4004 25.8262 29.2095 25.8262 28.475 26.5612L22.2783 32.7619Z" fill="#FFCA65"/>
<path fill-rule="evenodd" clip-rule="evenodd" d="M6.52521 36.5643C5.16112 35.1993 5.16112 32.9862 6.52522 31.6212L27.335 10.7978C28.6991 9.43277 30.9108 9.43277 32.2749 10.7978L53.0847 31.6212C54.4488 32.9862 54.4488 35.1993 53.0847 36.5643L32.2749 57.3878C30.9108 58.7528 28.6991 58.7528 27.335 57.3878L6.52521 36.5643ZM7.66518 32.7619C6.93066 33.4969 6.93066 34.6886 7.66518 35.4236L28.475 56.2471C29.2095 56.9821 30.4004 56.9821 31.1349 56.2471L51.9447 35.4236C52.6792 34.6886 52.6792 33.4969 51.9447 32.7619L31.1349 11.9385C30.4004 11.2035 29.2095 11.2035 28.475 11.9385L7.66518 32.7619Z" fill="#FFCA65"/>
<path fill-rule="evenodd" clip-rule="evenodd" d="M35.3599 52.557C35.6747 52.2421 36.1851 52.2421 36.4999 52.557L45.9041 61.9674C46.2189 62.2824 46.2189 62.7931 45.9041 63.1081C45.5893 63.4231 45.0789 63.4231 44.7641 63.1081L35.3599 53.6978C35.0451 53.3828 35.0451 52.872 35.3599 52.557Z" fill="#FFCA65"/>
<path fill-rule="evenodd" clip-rule="evenodd" d="M41.8085 46.1043C42.1233 45.7893 42.6337 45.7893 42.9485 46.1043L52.3527 55.5147C52.6675 55.8297 52.6675 56.3404 52.3527 56.6554C52.0379 56.9704 51.5275 56.9704 51.2127 56.6554L41.8085 47.245C41.4938 46.93 41.4938 46.4193 41.8085 46.1043Z" fill="#FFCA65"/>
<path fill-rule="evenodd" clip-rule="evenodd" d="M48.2572 39.6514C48.5719 39.3364 49.0823 39.3364 49.3971 39.6514L58.8013 49.0618C59.1161 49.3768 59.1161 49.8875 58.8013 50.2025C58.4865 50.5175 57.9762 50.5175 57.6614 50.2025L48.2572 40.7921C47.9424 40.4771 47.9424 39.9664 48.2572 39.6514Z" fill="#FFCA65"/>
<path fill-rule="evenodd" clip-rule="evenodd" d="M23.8714 15.2496C23.5566 15.5646 23.0462 15.5646 22.7314 15.2496L13.3272 5.83922C13.0124 5.52422 13.0124 5.0135 13.3272 4.69851C13.642 4.38351 14.1524 4.38351 14.4672 4.69851L23.8714 14.1089C24.1862 14.4239 24.1862 14.9346 23.8714 15.2496Z" fill="#FFCA65"/>
<path fill-rule="evenodd" clip-rule="evenodd" d="M17.4228 21.7023C17.108 22.0173 16.5976 22.0173 16.2828 21.7023L6.87862 12.292C6.56382 11.977 6.56382 11.4663 6.87862 11.1513C7.19341 10.8363 7.70379 10.8363 8.01858 11.1513L17.4228 20.5616C17.7376 20.8766 17.7376 21.3874 17.4228 21.7023Z" fill="#FFCA65"/>
<path fill-rule="evenodd" clip-rule="evenodd" d="M10.9742 28.1552C10.6594 28.4702 10.149 28.4702 9.83421 28.1552L0.430006 18.7449C0.115214 18.4299 0.115214 17.9191 0.430006 17.6041C0.744797 17.2891 1.25518 17.2891 1.56997 17.6041L10.9742 27.0145C11.289 27.3295 11.289 27.8402 10.9742 28.1552Z" fill="#FFCA65"/>
<path fill-rule="evenodd" clip-rule="evenodd" d="M48.2572 28.1552C47.9424 27.8402 47.9424 27.3295 48.2572 27.0145L57.6614 17.6041C57.9761 17.2891 58.4865 17.2891 58.8013 17.6041C59.1161 17.9191 59.1161 18.4299 58.8013 18.7449L49.3971 28.1552C49.0823 28.4702 48.5719 28.4702 48.2572 28.1552Z" fill="#FFCA65"/>
<path fill-rule="evenodd" clip-rule="evenodd" d="M41.8085 21.7023C41.4938 21.3874 41.4938 20.8766 41.8085 20.5616L51.2127 11.1513C51.5275 10.8363 52.0379 10.8363 52.3527 11.1513C52.6675 11.4663 52.6675 11.977 52.3527 12.292L42.9485 21.7023C42.6337 22.0173 42.1233 22.0173 41.8085 21.7023Z" fill="#FFCA65"/>
<path fill-rule="evenodd" clip-rule="evenodd" d="M35.3599 15.2496C35.0451 14.9346 35.0451 14.4239 35.3599 14.1089L44.7641 4.69851C45.0789 4.38351 45.5893 4.38351 45.9041 4.69851C46.2189 5.0135 46.2189 5.52422 45.9041 5.83922L36.4999 15.2496C36.1851 15.5646 35.6747 15.5646 35.3599 15.2496Z" fill="#FFCA65"/>
<path fill-rule="evenodd" clip-rule="evenodd" d="M10.9742 39.6514C11.289 39.9664 11.289 40.4771 10.9742 40.7921L1.56997 50.2025C1.25518 50.5175 0.744796 50.5175 0.430006 50.2025C0.115214 49.8875 0.115214 49.3768 0.430006 49.0618L9.83421 39.6514C10.149 39.3364 10.6594 39.3364 10.9742 39.6514Z" fill="#FFCA65"/>
<path fill-rule="evenodd" clip-rule="evenodd" d="M17.4228 46.1043C17.7376 46.4193 17.7376 46.93 17.4228 47.245L8.01858 56.6554C7.70379 56.9704 7.19341 56.9704 6.87862 56.6554C6.56382 56.3404 6.56382 55.8297 6.87862 55.5147L16.2828 46.1043C16.5976 45.7893 17.108 45.7893 17.4228 46.1043Z" fill="#FFCA65"/>
<path fill-rule="evenodd" clip-rule="evenodd" d="M23.8714 52.557C24.1862 52.872 24.1862 53.3828 23.8714 53.6978L14.4672 63.1081C14.1524 63.4231 13.642 63.4231 13.3272 63.1081C13.0124 62.7931 13.0124 62.2824 13.3272 61.9674L22.7314 52.557C23.0462 52.2421 23.5566 52.2421 23.8714 52.557Z" fill="#FFCA65"/>
<path fill-rule="evenodd" clip-rule="evenodd" d="M64.294 -20.7046C62.9299 -22.0696 62.9299 -24.2827 64.294 -25.6477L85.1038 -46.4712C86.4679 -47.8361 88.6795 -47.8361 90.0436 -46.4712L110.853 -25.6477C112.218 -24.2827 112.218 -22.0696 110.853 -20.7046L90.0436 0.11886C88.6795 1.48385 86.4679 1.48385 85.1038 0.118858L64.294 -20.7046ZM65.4339 -24.507C64.6994 -23.772 64.6994 -22.5803 65.4339 -21.8453L86.2437 -1.02185C86.9782 -0.286855 88.1691 -0.286855 88.9036 -1.02185L109.713 -21.8453C110.448 -22.5803 110.448 -23.772 109.713 -24.507L88.9036 -45.3304C88.1691 -46.0654 86.9782 -46.0654 86.2437 -45.3304L65.4339 -24.507Z" fill="#FFCA65"/>
<path fill-rule="evenodd" clip-rule="evenodd" d="M93.1287 -4.71187C93.4435 -5.02687 93.9538 -5.02687 94.2686 -4.71187L103.673 4.6985C103.988 5.0135 103.988 5.52422 103.673 5.83921C103.358 6.15421 102.848 6.15421 102.533 5.83921L93.1287 -3.57116C92.8139 -3.88616 92.8139 -4.39687 93.1287 -4.71187Z" fill="#FFCA65"/>
<path fill-rule="evenodd" clip-rule="evenodd" d="M81.6401 -4.71187C81.9549 -4.39687 81.9549 -3.88616 81.6401 -3.57116L72.2359 5.83921C71.9211 6.15421 71.4108 6.15421 71.096 5.83921C70.7812 5.52421 70.7812 5.0135 71.096 4.6985L80.5002 -4.71187C80.815 -5.02687 81.3253 -5.02687 81.6401 -4.71187Z" fill="#FFCA65"/>
</svg>
