<svg width="169" height="40" viewBox="0 0 169 40" fill="none" xmlns="http://www.w3.org/2000/svg">
<path fill-rule="evenodd" clip-rule="evenodd" d="M-15.5048 17.3211C-16.6661 18.4821 -16.6661 20.3646 -15.5048 21.5256L-11.8263 25.2033C-10.665 26.3644 -8.78213 26.3644 -7.62082 25.2033L-3.9423 21.5256C-2.781 20.3646 -2.781 18.4821 -3.9423 17.3211L-7.62082 13.6434C-8.78213 12.4823 -10.665 12.4823 -11.8263 13.6434L-15.5048 17.3211ZM49.0902 17.3211C47.9288 18.4821 47.9288 20.3646 49.0901 21.5256L52.7687 25.2033C53.93 26.3644 55.8128 26.3644 56.9741 25.2033L60.6526 21.5256C61.814 20.3646 61.814 18.4821 60.6526 17.3211L56.9741 13.6434C55.8128 12.4823 53.93 12.4823 52.7687 13.6434L49.0902 17.3211ZM113.756 17.3211C112.595 18.4821 112.595 20.3646 113.756 21.5256L117.435 25.2033C118.596 26.3644 120.479 26.3644 121.64 25.2033L125.319 21.5256C126.48 20.3646 126.48 18.4821 125.319 17.3211L121.64 13.6434C120.479 12.4823 118.596 12.4823 117.435 13.6434L113.756 17.3211ZM16.7191 17.3211C15.5578 18.4821 15.5578 20.3646 16.7191 21.5256L20.3976 25.2033C21.5589 26.3644 23.4418 26.3644 24.6031 25.2033L28.2816 21.5256C29.4429 20.3646 29.4429 18.4821 28.2816 17.3211L24.6031 13.6434C23.4418 12.4823 21.5589 12.4823 20.3976 13.6434L16.7191 17.3211ZM81.3141 17.3211C80.1528 18.4821 80.1528 20.3646 81.3141 21.5256L84.9926 25.2033C86.1539 26.3644 88.0367 26.3644 89.198 25.2033L92.8766 21.5256C94.0379 20.3646 94.0379 18.4821 92.8766 17.3211L89.198 13.6434C88.0367 12.4823 86.1539 12.4823 84.9926 13.6434L81.3141 17.3211ZM145.98 17.3211C144.819 18.4821 144.819 20.3646 145.98 21.5256L149.659 25.2033C150.82 26.3644 152.703 26.3644 153.864 25.2033L157.543 21.5256C158.704 20.3646 158.704 18.4821 157.543 17.3211L153.864 13.6434C152.703 12.4823 150.82 12.4823 149.659 13.6434L145.98 17.3211Z" fill="#FFCA65"/>
<path fill-rule="evenodd" clip-rule="evenodd" d="M88.2275 2.13303C87.6219 1.5367 86.6372 1.53723 86.0321 2.13434L73.0244 14.9703C73.0243 14.9704 73.0244 14.9703 73.0244 14.9703C71.8845 16.0954 70.0396 16.0953 68.8995 14.9705L55.8939 2.13621C55.8938 2.13619 55.8939 2.13623 55.8939 2.13621C55.288 1.53854 54.3024 1.53869 53.6973 2.13609L40.693 14.9685C40.6929 14.9685 40.693 14.9685 40.693 14.9685C39.552 16.0945 37.7054 16.0934 36.5657 14.9662L23.5981 2.13928C22.9928 1.54057 22.0063 1.53983 21.3998 2.138C21.3997 2.13803 21.3998 2.13797 21.3998 2.138L8.39592 14.9704C7.25582 16.0954 5.41106 16.0954 4.27098 14.9704L-8.73488 2.13616C-9.34044 1.53859 -10.3259 1.53857 -10.9316 2.13617C-10.9316 2.13617 -10.9316 2.13616 -10.9316 2.13617L-25.5178 16.5299L-26.4819 15.5533L-11.8957 1.15957C-10.7556 0.0345594 -8.91083 0.0345243 -7.77075 1.15957L5.23511 13.9938C5.84067 14.5914 6.82618 14.5914 7.43179 13.9938L20.4356 1.16141C21.5769 0.0356122 23.4236 0.0364599 24.5633 1.1638L37.5309 13.9907C38.1363 14.5895 39.1228 14.59 39.7288 13.992L52.733 1.15965C52.733 1.15962 52.7329 1.15968 52.733 1.15965C53.8729 0.0345269 55.7177 0.0346418 56.8579 1.15952L69.8635 13.9938C70.4693 14.5915 71.4549 14.5913 72.0601 13.9939L85.068 1.15774C86.2071 0.0336557 88.0502 0.032545 89.1906 1.15538L102.235 13.9969C102.84 14.5932 103.825 14.5928 104.43 13.9957L117.437 1.15958C118.578 0.0346085 120.422 0.0345476 121.563 1.15952L134.568 13.9938C135.174 14.5915 136.16 14.5913 136.765 13.9939L149.771 1.15965C149.771 1.15962 149.771 1.15968 149.771 1.15965C150.911 0.0345261 152.756 0.0346415 153.896 1.15952L168.482 15.5533L167.518 16.5299L152.932 2.13621C152.932 2.13619 152.932 2.13623 152.932 2.13621C152.326 1.53854 151.34 1.53869 150.735 2.13609L137.729 14.9703C136.589 16.0955 134.744 16.0953 133.604 14.9705L120.599 2.13621C120.599 2.13619 120.599 2.13623 120.599 2.13621C119.993 1.53861 119.007 1.53858 118.401 2.13621L105.394 14.9722C104.255 16.0963 102.412 16.0974 101.272 14.9746L88.2275 2.13303Z" fill="#FFCA65"/>
<path fill-rule="evenodd" clip-rule="evenodd" d="M-26.4884 23.4765C-26.2222 23.2068 -25.7877 23.204 -25.5179 23.4701L-10.9317 37.8639C-10.9317 37.8639 -10.9317 37.8639 -10.9317 37.8639C-10.3261 38.4615 -9.34057 38.4615 -8.73501 37.8639L4.27083 25.0297C5.41091 23.9046 7.25568 23.9046 8.39578 25.0297L21.4014 37.8639C22.0071 38.4615 22.9928 38.4615 23.5985 37.8638L36.6059 25.0279L37.0879 25.5161L36.6059 25.0278C37.745 23.9038 39.5881 23.9026 40.7285 25.0255L53.7724 37.867L53.7725 37.867C54.3781 38.4634 55.3628 38.4628 55.9679 37.8657L68.9756 25.0297C70.1155 23.9045 71.9604 23.9047 73.1006 25.0296L73.1006 25.0297L86.1062 37.8639C86.712 38.4616 87.6975 38.4614 88.3027 37.864L88.3028 37.8639L101.307 25.0315C102.448 23.9055 104.295 23.9066 105.434 25.0339L118.402 37.8608C119.007 38.4595 119.994 38.4602 120.6 37.862L133.604 25.0297L133.604 25.0296C134.744 23.9047 136.589 23.9045 137.729 25.0297L150.735 37.8639L150.735 37.864C151.34 38.4614 152.326 38.4616 152.932 37.8639L167.518 23.4701C167.788 23.204 168.222 23.2068 168.488 23.4765C168.754 23.7461 168.752 24.1805 168.482 24.4467L153.896 38.8405L153.445 38.3837L153.896 38.8405C152.756 39.9654 150.911 39.9656 149.771 38.8404L136.765 26.0063L136.765 26.0062C136.159 25.4088 135.174 25.4086 134.568 26.0063L121.564 38.8387L121.564 38.8388C120.423 39.9645 118.576 39.9636 117.437 38.8362L104.469 26.0094C103.864 25.4106 102.877 25.4101 102.271 26.0081L101.789 25.5198L102.271 26.0081L89.267 38.8404C88.1271 39.9656 86.2823 39.9655 85.1421 38.8405L85.142 38.8405L72.1365 26.0063C71.5307 25.4086 70.5451 25.4088 69.9399 26.0062L69.9398 26.0063L56.932 38.8423C55.7929 39.9664 53.9498 39.9675 52.8094 38.8446L39.7654 26.0032L39.7654 26.0032C39.1598 25.4068 38.1751 25.4073 37.57 26.0044L24.5626 38.8405L24.5626 38.8405C23.4224 39.9655 21.5776 39.9655 20.4373 38.8406L20.4373 38.8405L7.43166 26.0063C6.82603 25.4087 5.84055 25.4087 5.23499 26.0063L4.75291 25.518L5.23497 26.0063L-7.77088 38.8405C-8.91096 39.9655 -10.7557 39.9655 -11.8958 38.8405L-11.8958 38.8405L-26.4821 24.4467C-26.7518 24.1805 -26.7546 23.7461 -26.4884 23.4765Z" fill="#FFCA65"/>
</svg>
