<svg width="20" height="19" viewBox="0 0 20 19" fill="none" xmlns="http://www.w3.org/2000/svg">
<path fill-rule="evenodd" clip-rule="evenodd" d="M9.77211 4.46225C6.90996 4.46225 4.59039 6.71838 4.59039 9.50051C4.59039 12.2819 6.90996 14.5369 9.77211 14.5369C12.6335 14.5369 14.9534 12.2819 14.9534 9.50051C14.9534 6.71838 12.6335 4.46225 9.77211 4.46225ZM9.77211 2.34351L11.4826 3.98326L13.8339 3.50353L14.3606 5.7828L16.6061 6.61406L15.7824 8.80737L17.2088 10.6877L15.2954 12.1005L15.4499 14.4308L13.0548 14.6144L11.8888 16.6564L9.77211 15.5511L7.65544 16.6564L6.48942 14.6144L4.09429 14.4308L4.24882 12.1005L2.33581 10.6877L3.76179 8.80737L2.93772 6.61406L5.18285 5.7828L5.71031 3.50353L8.06124 3.98326L9.77211 2.34351Z" fill="white"/>
<path fill-rule="evenodd" clip-rule="evenodd" d="M9.77173 1.47519C5.21988 1.47519 1.51817 5.07499 1.51817 9.50055C1.51817 13.9254 5.21988 17.5248 9.77173 17.5248C14.3228 17.5248 18.0257 13.9254 18.0257 9.50055C18.0257 5.07499 14.3228 1.47519 9.77173 1.47519ZM9.77173 19C4.38371 19 0 14.7383 0 9.50055C0 4.26173 4.38371 0 9.77173 0C15.1594 0 19.5438 4.26173 19.5438 9.50055C19.5438 14.7383 15.1594 19 9.77173 19Z" fill="white"/>
<path fill-rule="evenodd" clip-rule="evenodd" d="M9.77211 11.6348C8.56113 11.6348 7.57609 10.6772 7.57609 9.50026C7.57609 8.32297 8.56113 7.36535 9.77211 7.36535C10.9827 7.36535 11.9674 8.32297 11.9674 9.50026C11.9674 10.6772 10.9827 11.6348 9.77211 11.6348ZM9.77211 6.36108C7.99134 6.36108 6.54383 7.76978 6.54383 9.50026C6.54383 11.2311 7.99134 12.6391 9.77211 12.6391C11.5521 12.6391 13.0004 11.2311 13.0004 9.50026C13.0004 7.76978 11.5521 6.36108 9.77211 6.36108Z" fill="white"/>
</svg>
